<svg xmlns="http://www.w3.org/2000/svg" width="512" height="512" viewBox="0 0 204.992 204.992"><path xmlns="http://www.w3.org/2000/svg" d="M204.991 102.496c0-17.626-4.557-35.018-13.177-50.296a102.673 102.673 0 00-40.825-40.019C136.177 4.212 119.408 0 102.496 0 84.954 0 67.634 4.517 52.407 13.061a102.621 102.621 0 00-40.374 41.221C4.161 69.024 0 85.696 0 102.496c0 18.234 4.857 36.147 14.045 51.804l.004.007c9.959 16.966 24.474 30.647 41.976 39.564a.022.022 0 01.005.003c14.48 7.377 30.113 11.118 46.465 11.118 18.319 0 36.306-4.9 52.015-14.169a102.66 102.66 0 0039.22-41.578l.006-.013c7.364-14.347 11.255-30.507 11.255-46.736zM22.98 139.034A87.568 87.568 0 0115 102.496a87.849 87.849 0 016.573-33.306l25.613 18.537a57.043 57.043 0 00-1.934 14.769c0 5.826.863 11.523 2.572 17.006l-17.49 13.751-7.354 5.781zm66.036 3.495a42.313 42.313 0 01-25.379-23.445 41.965 41.965 0 01-3.384-16.588c0-5.149.924-10.193 2.748-14.993v-.002A42.31 42.31 0 0187.403 63.04a42.037 42.037 0 0115.092-2.787 42.05 42.05 0 0115.229 2.841 42.368 42.368 0 0124.156 24.13 42.048 42.048 0 012.858 15.271c0 4.68-.772 9.3-2.294 13.73a42.363 42.363 0 01-23.188 25.05l-.002.001a41.938 41.938 0 01-16.758 3.461 42.141 42.141 0 01-13.48-2.208zm93.671-75.064a87.682 87.682 0 017.304 35.03c0 11.077-2.006 21.76-5.974 31.864L158.2 115.674a57.083 57.083 0 001.538-13.18 56.99 56.99 0 00-2.092-15.343l22.645-17.803 2.396-1.883zM102.496 15a87.832 87.832 0 0133.583 6.686l-18.515 25.583c-9.812-2.682-20.375-2.678-30.184.013L67.673 22.215A87.696 87.696 0 01102.496 15zm0 174.992c-10.97 0-21.559-1.97-31.583-5.866l18.711-25.854a57.074 57.074 0 0012.873 1.466c5.902 0 11.673-.887 17.226-2.644l9.881 12.568 9.635 12.255a87.538 87.538 0 01-36.743 8.075z" fill="#f31f79" data-original="#000000"/></svg>